<?xml version="1.0" standalone="no"?>
<!DOCTYPE svg PUBLIC "-//W3C//DTD SVG 20010904//EN"
 "http://www.w3.org/TR/2001/REC-SVG-20010904/DTD/svg10.dtd">
<svg version="1.0" xmlns="http://www.w3.org/2000/svg"
 width="360.000000pt" height="337.000000pt" viewBox="0 0 360.000000 337.000000"
 preserveAspectRatio="xMidYMid meet">
<metadata>
Created by potrace 1.11, written by Peter Selinger 2001-2013
</metadata>
<g transform="translate(0.000000,337.000000) scale(0.100000,-0.100000)"
fill="#000000" stroke="none">
<path d="M309 3354 c-21 -26 8 -65 75 -99 106 -54 97 57 94 -1162 -3 -1060 -3
-1062 -24 -1090 -11 -15 -46 -40 -78 -55 -63 -31 -88 -66 -66 -93 11 -13 47
-15 264 -13 l251 3 3 23 c5 32 -12 49 -81 83 -105 53 -97 -33 -97 1053 0 517
2 937 6 934 3 -3 234 -487 514 -1074 l508 -1069 38 -3 39 -2 470 1017 c258
560 491 1063 517 1118 l47 100 1 -991 0 -991 -23 -34 c-14 -21 -44 -44 -80
-62 -64 -30 -89 -65 -67 -92 11 -13 58 -15 335 -15 351 0 356 1 336 53 -6 16
-29 34 -64 51 -30 14 -67 40 -81 57 l-26 31 0 1066 c0 1225 -10 1106 100 1162
67 34 92 68 70 95 -11 13 -48 15 -273 13 l-261 -3 -475 -1007 c-262 -554 -479
-1004 -482 -1000 -4 4 -226 458 -495 1010 l-488 1002 -247 0 c-213 0 -248 -2
-260 -16z"/>
<path d="M158 461 c-144 -46 -196 -218 -100 -333 91 -108 265 -80 334 56 l15
28 13 -33 c40 -102 161 -148 265 -100 52 24 74 50 95 112 l17 50 7 -33 c16
-83 110 -158 196 -158 72 1 170 71 186 135 8 32 20 32 28 1 3 -14 18 -39 32
-56 105 -124 308 -74 342 85 l8 40 7 -41 c10 -61 45 -105 106 -136 63 -32 110
-35 166 -9 53 24 90 66 108 120 l14 44 13 -37 c16 -48 66 -105 107 -122 42
-18 115 -18 156 0 42 18 82 61 102 110 l17 39 19 -44 c27 -58 55 -87 107 -110
98 -43 203 -4 253 93 10 21 19 50 20 65 1 23 3 20 10 -13 12 -50 71 -121 116
-140 41 -18 114 -18 156 0 38 15 94 76 103 111 8 33 20 32 32 -3 24 -70 109
-131 182 -132 40 0 127 38 152 66 62 71 62 207 0 278 -25 28 -112 66 -152 66
-73 -1 -158 -62 -182 -132 -12 -35 -24 -36 -32 -3 -9 35 -65 96 -103 111 -42
18 -115 18 -156 0 -45 -19 -104 -90 -116 -140 -7 -33 -9 -36 -10 -13 -1 35
-32 95 -63 124 -31 28 -93 53 -133 53 -43 0 -114 -31 -142 -61 -12 -13 -31
-44 -42 -68 l-19 -44 -17 39 c-20 49 -60 92 -102 110 -41 18 -114 18 -156 0
-41 -17 -91 -74 -107 -122 l-13 -37 -14 44 c-18 54 -55 96 -108 120 -56 26
-103 23 -166 -8 -61 -32 -96 -76 -106 -137 l-7 -41 -8 40 c-34 159 -237 209
-342 85 -14 -17 -29 -42 -32 -56 -8 -31 -20 -31 -28 1 -16 64 -114 134 -186
135 -86 0 -180 -75 -196 -158 l-7 -33 -17 50 c-21 62 -43 88 -95 112 -100 46
-221 4 -262 -91 l-15 -35 -20 40 c-11 22 -28 48 -37 59 -39 44 -139 74 -193
57z m529 -79 c91 -65 79 -218 -21 -266 -105 -50 -216 21 -216 139 0 59 25 106
72 136 43 26 122 22 165 -9z m800 0 c91 -65 79 -218 -21 -266 -49 -23 -107
-20 -146 7 -56 37 -73 69 -73 132 0 63 17 95 74 133 43 30 120 27 166 -6z
m796 2 c37 -27 67 -85 67 -129 0 -44 -30 -102 -67 -129 -15 -11 -48 -21 -77
-24 -41 -3 -57 1 -85 20 -57 38 -75 72 -75 133 0 61 18 95 75 133 28 19 44 23
85 20 29 -3 62 -13 77 -24z m787 4 c55 -38 75 -73 75 -133 0 -60 -19 -95 -76
-133 -28 -19 -44 -23 -85 -20 -28 3 -62 13 -77 24 -32 23 -67 90 -67 127 0 57
45 126 95 147 39 17 101 11 135 -12z"/>
</g>
</svg>
